<?xml version="1.0" encoding="UTF-8" standalone="no"?><svg xmlns="http://www.w3.org/2000/svg" xmlns:xlink="http://www.w3.org/1999/xlink" contentStyleType="text/css" height="861px" preserveAspectRatio="none" style="width:633px;height:861px;background:#FFFFFF;" version="1.1" viewBox="0 0 633 861" width="633px" zoomAndPan="magnify"><defs/><g><!--MD5=[04a9d01b23931e40c177779ed4611716]
class empresa_hotelera--><g id="elem_empresa_hotelera"><rect codeLine="2" fill="#F1F1F1" height="136.0469" id="empresa_hotelera" rx="2.5" ry="2.5" style="stroke:#181818;stroke-width:0.5;" width="218" x="7" y="24.5"/><ellipse cx="54.25" cy="40.5" fill="#ADD1B2" rx="11" ry="11" style="stroke:#181818;stroke-width:1.0;"/><path d="M53.1094,41.2969 L53.1094,43.7969 L57.4375,43.7969 L57.4375,42.875 Q57.4375,42.2656 57.6719,42 Q57.9219,41.7344 58.2969,41.7344 Q58.6719,41.7344 58.9063,42 Q59.1406,42.2656 59.1406,42.875 L59.1406,45.5 L51.1406,45.5 Q50.5156,45.5 50.25,45.2656 Q50,45.0313 50,44.6406 Q50,44.2656 50.2656,44.0313 Q50.5313,43.7969 51.1406,43.7969 L51.4063,43.7969 L51.4063,37.1406 L51.1406,37.1406 Q50.5156,37.1406 50.25,36.9063 Q50,36.6719 50,36.2813 Q50,35.9063 50.25,35.6719 Q50.5156,35.4375 51.1406,35.4375 L58.7656,35.4375 L58.7656,38.0313 Q58.7656,38.6406 58.5313,38.9063 Q58.3125,39.1563 57.9219,39.1563 Q57.5469,39.1563 57.3125,38.9063 Q57.0781,38.6406 57.0781,38.0313 L57.0781,37.1406 L53.1094,37.1406 L53.1094,39.5938 L54.5938,39.5938 Q54.5938,38.9375 54.7188,38.75 Q54.9844,38.3438 55.4531,38.3438 Q55.8281,38.3438 56.0625,38.6094 Q56.2969,38.8594 56.2969,39.4688 L56.2969,41.4375 Q56.2969,41.9844 56.1719,42.1719 Q55.9063,42.5625 55.4531,42.5625 Q54.9844,42.5625 54.7188,42.1563 Q54.5938,41.9688 54.5938,41.2969 L53.1094,41.2969 Z " fill="#000000"/><text fill="#000000" font-family="sans-serif" font-size="14" lengthAdjust="spacing" textLength="115" x="74.75" y="46.2285">empresa_hotelera</text><line style="stroke:#181818;stroke-width:0.5;" x1="8" x2="224" y1="56.5" y2="56.5"/><ellipse cx="18" cy="70.8047" fill="none" rx="3" ry="3" style="stroke:#038048;stroke-width:1.0;"/><text fill="#000000" font-family="sans-serif" font-size="14" lengthAdjust="spacing" textLength="176" x="27" y="75.0332">id_empresa_hotel INT «PK»</text><line style="stroke:#181818;stroke-width:0.5;" x1="8" x2="224" y1="82.1094" y2="82.1094"/><text fill="#000000" font-family="sans-serif" font-size="14" lengthAdjust="spacing" textLength="183" x="13" y="100.6426">razon_social VARCHAR(255)</text><text fill="#000000" font-family="sans-serif" font-size="14" lengthAdjust="spacing" textLength="124" x="13" y="118.252">ruc VARCHAR(255)</text><text fill="#000000" font-family="sans-serif" font-size="14" lengthAdjust="spacing" textLength="161" x="13" y="135.8613">direccion VARCHAR(255)</text><text fill="#000000" font-family="sans-serif" font-size="14" lengthAdjust="spacing" textLength="206" x="13" y="153.4707">telefono_central VARCHAR(255)</text></g><!--MD5=[73dd715310667798158406c775d5dd72]
class sucursal--><g id="elem_sucursal"><rect codeLine="10" fill="#F1F1F1" height="171.2656" id="sucursal" rx="2.5" ry="2.5" style="stroke:#181818;stroke-width:0.5;" width="228" x="7" y="238"/><ellipse cx="90.25" cy="254" fill="#ADD1B2" rx="11" ry="11" style="stroke:#181818;stroke-width:1.0;"/><path d="M89.1094,254.7969 L89.1094,257.2969 L93.4375,257.2969 L93.4375,256.375 Q93.4375,255.7656 93.6719,255.5 Q93.9219,255.2344 94.2969,255.2344 Q94.6719,255.2344 94.9063,255.5 Q95.1406,255.7656 95.1406,256.375 L95.1406,259 L87.1406,259 Q86.5156,259 86.25,258.7656 Q86,258.5313 86,258.1406 Q86,257.7656 86.2656,257.5313 Q86.5313,257.2969 87.1406,257.2969 L87.4063,257.2969 L87.4063,250.6406 L87.1406,250.6406 Q86.5156,250.6406 86.25,250.4063 Q86,250.1719 86,249.7813 Q86,249.4063 86.25,249.1719 Q86.5156,248.9375 87.1406,248.9375 L94.7656,248.9375 L94.7656,251.5313 Q94.7656,252.1406 94.5313,252.4063 Q94.3125,252.6563 93.9219,252.6563 Q93.5469,252.6563 93.3125,252.4063 Q93.0781,252.1406 93.0781,251.5313 L93.0781,250.6406 L89.1094,250.6406 L89.1094,253.0938 L90.5938,253.0938 Q90.5938,252.4375 90.7188,252.25 Q90.9844,251.8438 91.4531,251.8438 Q91.8281,251.8438 92.0625,252.1094 Q92.2969,252.3594 92.2969,252.9688 L92.2969,254.9375 Q92.2969,255.4844 92.1719,255.6719 Q91.9063,256.0625 91.4531,256.0625 Q90.9844,256.0625 90.7188,255.6563 Q90.5938,255.4688 90.5938,254.7969 L89.1094,254.7969 Z " fill="#000000"/><text fill="#000000" font-family="sans-serif" font-size="14" lengthAdjust="spacing" textLength="53" x="110.75" y="259.7285">sucursal</text><line style="stroke:#181818;stroke-width:0.5;" x1="8" x2="234" y1="270" y2="270"/><ellipse cx="18" cy="284.3047" fill="none" rx="3" ry="3" style="stroke:#038048;stroke-width:1.0;"/><text fill="#000000" font-family="sans-serif" font-size="14" lengthAdjust="spacing" textLength="138" x="27" y="288.5332">id_empresa_hotel INT</text><ellipse cx="18" cy="301.9141" fill="none" rx="3" ry="3" style="stroke:#038048;stroke-width:1.0;"/><text fill="#000000" font-family="sans-serif" font-size="14" lengthAdjust="spacing" textLength="135" x="27" y="306.1426">id_sucursal INT «PK»</text><line style="stroke:#181818;stroke-width:0.5;" x1="8" x2="234" y1="313.2188" y2="313.2188"/><text fill="#000000" font-family="sans-serif" font-size="14" lengthAdjust="spacing" textLength="152" x="13" y="331.752">nombre VARCHAR(255)</text><text fill="#000000" font-family="sans-serif" font-size="14" lengthAdjust="spacing" textLength="146" x="13" y="349.3613">ciudad VARCHAR(255)</text><text fill="#000000" font-family="sans-serif" font-size="14" lengthAdjust="spacing" textLength="146" x="13" y="366.9707">distrito VARCHAR(255)</text><text fill="#000000" font-family="sans-serif" font-size="14" lengthAdjust="spacing" textLength="161" x="13" y="384.5801">direccion VARCHAR(255)</text><text fill="#000000" font-family="sans-serif" font-size="14" lengthAdjust="spacing" textLength="216" x="13" y="402.1895">telefono_sucursal VARCHAR(255)</text></g><!--MD5=[24edd0f15e9983adccddd375cb6f9c32]
class tipo_habitacion--><g id="elem_tipo_habitacion"><rect codeLine="20" fill="#F1F1F1" height="136.0469" id="tipo_habitacion" rx="2.5" ry="2.5" style="stroke:#181818;stroke-width:0.5;" width="204" x="242" y="718"/><ellipse cx="291.75" cy="734" fill="#ADD1B2" rx="11" ry="11" style="stroke:#181818;stroke-width:1.0;"/><path d="M290.6094,734.7969 L290.6094,737.2969 L294.9375,737.2969 L294.9375,736.375 Q294.9375,735.7656 295.1719,735.5 Q295.4219,735.2344 295.7969,735.2344 Q296.1719,735.2344 296.4063,735.5 Q296.6406,735.7656 296.6406,736.375 L296.6406,739 L288.6406,739 Q288.0156,739 287.75,738.7656 Q287.5,738.5313 287.5,738.1406 Q287.5,737.7656 287.7656,737.5313 Q288.0313,737.2969 288.6406,737.2969 L288.9063,737.2969 L288.9063,730.6406 L288.6406,730.6406 Q288.0156,730.6406 287.75,730.4063 Q287.5,730.1719 287.5,729.7813 Q287.5,729.4063 287.75,729.1719 Q288.0156,728.9375 288.6406,728.9375 L296.2656,728.9375 L296.2656,731.5313 Q296.2656,732.1406 296.0313,732.4063 Q295.8125,732.6563 295.4219,732.6563 Q295.0469,732.6563 294.8125,732.4063 Q294.5781,732.1406 294.5781,731.5313 L294.5781,730.6406 L290.6094,730.6406 L290.6094,733.0938 L292.0938,733.0938 Q292.0938,732.4375 292.2188,732.25 Q292.4844,731.8438 292.9531,731.8438 Q293.3281,731.8438 293.5625,732.1094 Q293.7969,732.3594 293.7969,732.9688 L293.7969,734.9375 Q293.7969,735.4844 293.6719,735.6719 Q293.4063,736.0625 292.9531,736.0625 Q292.4844,736.0625 292.2188,735.6563 Q292.0938,735.4688 292.0938,734.7969 L290.6094,734.7969 Z " fill="#000000"/><text fill="#000000" font-family="sans-serif" font-size="14" lengthAdjust="spacing" textLength="96" x="312.25" y="739.7285">tipo_habitacion</text><line style="stroke:#181818;stroke-width:0.5;" x1="243" x2="445" y1="750" y2="750"/><ellipse cx="253" cy="764.3047" fill="none" rx="3" ry="3" style="stroke:#038048;stroke-width:1.0;"/><text fill="#000000" font-family="sans-serif" font-size="14" lengthAdjust="spacing" textLength="178" x="262" y="768.5332">id_tipo_habitacion INT «PK»</text><text fill="#000000" font-family="sans-serif" font-size="14" lengthAdjust="spacing" textLength="90" x="262" y="786.1426">capacidad INT</text><line style="stroke:#181818;stroke-width:0.5;" x1="243" x2="445" y1="793.2188" y2="793.2188"/><text fill="#000000" font-family="sans-serif" font-size="14" lengthAdjust="spacing" textLength="127" x="248" y="811.752">tipo VARCHAR(255)</text><text fill="#000000" font-family="sans-serif" font-size="14" lengthAdjust="spacing" textLength="176" x="248" y="829.3613">descripcion VARCHAR(255)</text><text fill="#000000" font-family="sans-serif" font-size="14" lengthAdjust="spacing" textLength="145" x="248" y="846.9707">precio DECIMAL(10, 2)</text></g><!--MD5=[1b7ccbc1f40d83b0f7104de3a41c6f4a]
class habitaciones--><g id="elem_habitaciones"><rect codeLine="28" fill="#F1F1F1" height="136.0469" id="habitaciones" rx="2.5" ry="2.5" style="stroke:#181818;stroke-width:0.5;" width="173" x="253.5" y="495.5"/><ellipse cx="295.95" cy="511.5" fill="#ADD1B2" rx="11" ry="11" style="stroke:#181818;stroke-width:1.0;"/><path d="M294.8094,512.2969 L294.8094,514.7969 L299.1375,514.7969 L299.1375,513.875 Q299.1375,513.2656 299.3719,513 Q299.6219,512.7344 299.9969,512.7344 Q300.3719,512.7344 300.6063,513 Q300.8406,513.2656 300.8406,513.875 L300.8406,516.5 L292.8406,516.5 Q292.2156,516.5 291.95,516.2656 Q291.7,516.0313 291.7,515.6406 Q291.7,515.2656 291.9656,515.0313 Q292.2313,514.7969 292.8406,514.7969 L293.1063,514.7969 L293.1063,508.1406 L292.8406,508.1406 Q292.2156,508.1406 291.95,507.9063 Q291.7,507.6719 291.7,507.2813 Q291.7,506.9063 291.95,506.6719 Q292.2156,506.4375 292.8406,506.4375 L300.4656,506.4375 L300.4656,509.0313 Q300.4656,509.6406 300.2313,509.9063 Q300.0125,510.1563 299.6219,510.1563 Q299.2469,510.1563 299.0125,509.9063 Q298.7781,509.6406 298.7781,509.0313 L298.7781,508.1406 L294.8094,508.1406 L294.8094,510.5938 L296.2938,510.5938 Q296.2938,509.9375 296.4188,509.75 Q296.6844,509.3438 297.1531,509.3438 Q297.5281,509.3438 297.7625,509.6094 Q297.9969,509.8594 297.9969,510.4688 L297.9969,512.4375 Q297.9969,512.9844 297.8719,513.1719 Q297.6063,513.5625 297.1531,513.5625 Q296.6844,513.5625 296.4188,513.1563 Q296.2938,512.9688 296.2938,512.2969 L294.8094,512.2969 Z " fill="#000000"/><text fill="#000000" font-family="sans-serif" font-size="14" lengthAdjust="spacing" textLength="80" x="316.05" y="517.2285">habitaciones</text><line style="stroke:#181818;stroke-width:0.5;" x1="254.5" x2="425.5" y1="527.5" y2="527.5"/><ellipse cx="264.5" cy="541.8047" fill="none" rx="3" ry="3" style="stroke:#038048;stroke-width:1.0;"/><text fill="#000000" font-family="sans-serif" font-size="14" lengthAdjust="spacing" textLength="97" x="273.5" y="546.0332">id_sucursal INT</text><ellipse cx="264.5" cy="559.4141" fill="none" rx="3" ry="3" style="stroke:#038048;stroke-width:1.0;"/><text fill="#000000" font-family="sans-serif" font-size="14" lengthAdjust="spacing" textLength="147" x="273.5" y="563.6426">id_habitacion INT «PK»</text><text fill="#000000" font-family="sans-serif" font-size="14" lengthAdjust="spacing" textLength="51" x="273.5" y="581.252">piso INT</text><text fill="#000000" font-family="sans-serif" font-size="14" lengthAdjust="spacing" textLength="66" x="273.5" y="598.8613">puerta INT</text><text fill="#000000" font-family="sans-serif" font-size="14" lengthAdjust="spacing" textLength="140" x="273.5" y="616.4707">id_tipo_habitacion INT</text><line style="stroke:#181818;stroke-width:0.5;" x1="254.5" x2="425.5" y1="623.5469" y2="623.5469"/></g><!--MD5=[252f8112213ac6beb9284f0b89683fdb]
class cargos--><g id="elem_cargos"><rect codeLine="36" fill="#F1F1F1" height="100.8281" id="cargos" rx="2.5" ry="2.5" style="stroke:#181818;stroke-width:0.5;" width="188" x="19" y="735.5"/><ellipse cx="87.25" cy="751.5" fill="#ADD1B2" rx="11" ry="11" style="stroke:#181818;stroke-width:1.0;"/><path d="M86.1094,752.2969 L86.1094,754.7969 L90.4375,754.7969 L90.4375,753.875 Q90.4375,753.2656 90.6719,753 Q90.9219,752.7344 91.2969,752.7344 Q91.6719,752.7344 91.9063,753 Q92.1406,753.2656 92.1406,753.875 L92.1406,756.5 L84.1406,756.5 Q83.5156,756.5 83.25,756.2656 Q83,756.0313 83,755.6406 Q83,755.2656 83.2656,755.0313 Q83.5313,754.7969 84.1406,754.7969 L84.4063,754.7969 L84.4063,748.1406 L84.1406,748.1406 Q83.5156,748.1406 83.25,747.9063 Q83,747.6719 83,747.2813 Q83,746.9063 83.25,746.6719 Q83.5156,746.4375 84.1406,746.4375 L91.7656,746.4375 L91.7656,749.0313 Q91.7656,749.6406 91.5313,749.9063 Q91.3125,750.1563 90.9219,750.1563 Q90.5469,750.1563 90.3125,749.9063 Q90.0781,749.6406 90.0781,749.0313 L90.0781,748.1406 L86.1094,748.1406 L86.1094,750.5938 L87.5938,750.5938 Q87.5938,749.9375 87.7188,749.75 Q87.9844,749.3438 88.4531,749.3438 Q88.8281,749.3438 89.0625,749.6094 Q89.2969,749.8594 89.2969,750.4688 L89.2969,752.4375 Q89.2969,752.9844 89.1719,753.1719 Q88.9063,753.5625 88.4531,753.5625 Q87.9844,753.5625 87.7188,753.1563 Q87.5938,752.9688 87.5938,752.2969 L86.1094,752.2969 Z " fill="#000000"/><text fill="#000000" font-family="sans-serif" font-size="14" lengthAdjust="spacing" textLength="43" x="107.75" y="757.2285">cargos</text><line style="stroke:#181818;stroke-width:0.5;" x1="20" x2="206" y1="767.5" y2="767.5"/><ellipse cx="30" cy="781.8047" fill="none" rx="3" ry="3" style="stroke:#038048;stroke-width:1.0;"/><text fill="#000000" font-family="sans-serif" font-size="14" lengthAdjust="spacing" textLength="118" x="39" y="786.0332">id_cargo INT «PK»</text><line style="stroke:#181818;stroke-width:0.5;" x1="20" x2="206" y1="793.1094" y2="793.1094"/><text fill="#000000" font-family="sans-serif" font-size="14" lengthAdjust="spacing" textLength="152" x="25" y="811.6426">nombre VARCHAR(255)</text><text fill="#000000" font-family="sans-serif" font-size="14" lengthAdjust="spacing" textLength="176" x="25" y="829.252">descripcion VARCHAR(255)</text></g><!--MD5=[b5d1286e68f154ff6ae2368cded88789]
class empleados--><g id="elem_empleados"><rect codeLine="42" fill="#F1F1F1" height="188.875" id="empleados" rx="2.5" ry="2.5" style="stroke:#181818;stroke-width:0.5;" width="187" x="27.5" y="469"/><ellipse cx="82.25" cy="485" fill="#ADD1B2" rx="11" ry="11" style="stroke:#181818;stroke-width:1.0;"/><path d="M81.1094,485.7969 L81.1094,488.2969 L85.4375,488.2969 L85.4375,487.375 Q85.4375,486.7656 85.6719,486.5 Q85.9219,486.2344 86.2969,486.2344 Q86.6719,486.2344 86.9063,486.5 Q87.1406,486.7656 87.1406,487.375 L87.1406,490 L79.1406,490 Q78.5156,490 78.25,489.7656 Q78,489.5313 78,489.1406 Q78,488.7656 78.2656,488.5313 Q78.5313,488.2969 79.1406,488.2969 L79.4063,488.2969 L79.4063,481.6406 L79.1406,481.6406 Q78.5156,481.6406 78.25,481.4063 Q78,481.1719 78,480.7813 Q78,480.4063 78.25,480.1719 Q78.5156,479.9375 79.1406,479.9375 L86.7656,479.9375 L86.7656,482.5313 Q86.7656,483.1406 86.5313,483.4063 Q86.3125,483.6563 85.9219,483.6563 Q85.5469,483.6563 85.3125,483.4063 Q85.0781,483.1406 85.0781,482.5313 L85.0781,481.6406 L81.1094,481.6406 L81.1094,484.0938 L82.5938,484.0938 Q82.5938,483.4375 82.7188,483.25 Q82.9844,482.8438 83.4531,482.8438 Q83.8281,482.8438 84.0625,483.1094 Q84.2969,483.3594 84.2969,483.9688 L84.2969,485.9375 Q84.2969,486.4844 84.1719,486.6719 Q83.9063,487.0625 83.4531,487.0625 Q82.9844,487.0625 82.7188,486.6563 Q82.5938,486.4688 82.5938,485.7969 L81.1094,485.7969 Z " fill="#000000"/><text fill="#000000" font-family="sans-serif" font-size="14" lengthAdjust="spacing" textLength="69" x="102.75" y="490.7285">empleados</text><line style="stroke:#181818;stroke-width:0.5;" x1="28.5" x2="213.5" y1="501" y2="501"/><ellipse cx="38.5" cy="515.3047" fill="none" rx="3" ry="3" style="stroke:#038048;stroke-width:1.0;"/><text fill="#000000" font-family="sans-serif" font-size="14" lengthAdjust="spacing" textLength="144" x="47.5" y="519.5332">id_empleado INT «PK»</text><text fill="#000000" font-family="sans-serif" font-size="14" lengthAdjust="spacing" textLength="97" x="47.5" y="537.1426">id_sucursal INT</text><text fill="#000000" font-family="sans-serif" font-size="14" lengthAdjust="spacing" textLength="80" x="47.5" y="554.752">id_cargo INT</text><text fill="#000000" font-family="sans-serif" font-size="14" lengthAdjust="spacing" textLength="114" x="47.5" y="572.3613">dni_empleado INT</text><line style="stroke:#181818;stroke-width:0.5;" x1="28.5" x2="213.5" y1="579.4375" y2="579.4375"/><text fill="#000000" font-family="sans-serif" font-size="14" lengthAdjust="spacing" textLength="152" x="33.5" y="597.9707">nombre VARCHAR(255)</text><text fill="#000000" font-family="sans-serif" font-size="14" lengthAdjust="spacing" textLength="153" x="33.5" y="615.5801">apellido VARCHAR(255)</text><text fill="#000000" font-family="sans-serif" font-size="14" lengthAdjust="spacing" textLength="146" x="33.5" y="633.1895">celular VARCHAR(255)</text><text fill="#000000" font-family="sans-serif" font-size="14" lengthAdjust="spacing" textLength="175" x="33.5" y="650.7988">contrasena VARCHAR(255)</text></g><!--MD5=[f45a1d0e85723b27879d890c07d080f0]
class clientes--><g id="elem_clientes"><rect codeLine="53" fill="#F1F1F1" height="118.4375" id="clientes" rx="2.5" ry="2.5" style="stroke:#181818;stroke-width:0.5;" width="165" x="461.5" y="504.5"/><ellipse cx="515.75" cy="520.5" fill="#ADD1B2" rx="11" ry="11" style="stroke:#181818;stroke-width:1.0;"/><path d="M514.6094,521.2969 L514.6094,523.7969 L518.9375,523.7969 L518.9375,522.875 Q518.9375,522.2656 519.1719,522 Q519.4219,521.7344 519.7969,521.7344 Q520.1719,521.7344 520.4063,522 Q520.6406,522.2656 520.6406,522.875 L520.6406,525.5 L512.6406,525.5 Q512.0156,525.5 511.75,525.2656 Q511.5,525.0313 511.5,524.6406 Q511.5,524.2656 511.7656,524.0313 Q512.0313,523.7969 512.6406,523.7969 L512.9063,523.7969 L512.9063,517.1406 L512.6406,517.1406 Q512.0156,517.1406 511.75,516.9063 Q511.5,516.6719 511.5,516.2813 Q511.5,515.9063 511.75,515.6719 Q512.0156,515.4375 512.6406,515.4375 L520.2656,515.4375 L520.2656,518.0313 Q520.2656,518.6406 520.0313,518.9063 Q519.8125,519.1563 519.4219,519.1563 Q519.0469,519.1563 518.8125,518.9063 Q518.5781,518.6406 518.5781,518.0313 L518.5781,517.1406 L514.6094,517.1406 L514.6094,519.5938 L516.0938,519.5938 Q516.0938,518.9375 516.2188,518.75 Q516.4844,518.3438 516.9531,518.3438 Q517.3281,518.3438 517.5625,518.6094 Q517.7969,518.8594 517.7969,519.4688 L517.7969,521.4375 Q517.7969,521.9844 517.6719,522.1719 Q517.4063,522.5625 516.9531,522.5625 Q516.4844,522.5625 516.2188,522.1563 Q516.0938,521.9688 516.0938,521.2969 L514.6094,521.2969 Z " fill="#000000"/><text fill="#000000" font-family="sans-serif" font-size="14" lengthAdjust="spacing" textLength="48" x="536.25" y="526.2285">clientes</text><line style="stroke:#181818;stroke-width:0.5;" x1="462.5" x2="625.5" y1="536.5" y2="536.5"/><ellipse cx="472.5" cy="550.8047" fill="none" rx="3" ry="3" style="stroke:#038048;stroke-width:1.0;"/><text fill="#000000" font-family="sans-serif" font-size="14" lengthAdjust="spacing" textLength="131" x="481.5" y="555.0332">dni_cliente INT «PK»</text><line style="stroke:#181818;stroke-width:0.5;" x1="462.5" x2="625.5" y1="562.1094" y2="562.1094"/><text fill="#000000" font-family="sans-serif" font-size="14" lengthAdjust="spacing" textLength="152" x="467.5" y="580.6426">nombre VARCHAR(255)</text><text fill="#000000" font-family="sans-serif" font-size="14" lengthAdjust="spacing" textLength="153" x="467.5" y="598.252">apellido VARCHAR(255)</text><text fill="#000000" font-family="sans-serif" font-size="14" lengthAdjust="spacing" textLength="146" x="467.5" y="615.8613">celular VARCHAR(255)</text></g><!--MD5=[60655edb55dc0b12cdb380a6043a5e6a]
class reserva--><g id="elem_reserva"><rect codeLine="60" fill="#F1F1F1" height="171.2656" id="reserva" rx="2.5" ry="2.5" style="stroke:#181818;stroke-width:0.5;" width="159" x="273.5" y="238"/><ellipse cx="324.75" cy="254" fill="#ADD1B2" rx="11" ry="11" style="stroke:#181818;stroke-width:1.0;"/><path d="M323.6094,254.7969 L323.6094,257.2969 L327.9375,257.2969 L327.9375,256.375 Q327.9375,255.7656 328.1719,255.5 Q328.4219,255.2344 328.7969,255.2344 Q329.1719,255.2344 329.4063,255.5 Q329.6406,255.7656 329.6406,256.375 L329.6406,259 L321.6406,259 Q321.0156,259 320.75,258.7656 Q320.5,258.5313 320.5,258.1406 Q320.5,257.7656 320.7656,257.5313 Q321.0313,257.2969 321.6406,257.2969 L321.9063,257.2969 L321.9063,250.6406 L321.6406,250.6406 Q321.0156,250.6406 320.75,250.4063 Q320.5,250.1719 320.5,249.7813 Q320.5,249.4063 320.75,249.1719 Q321.0156,248.9375 321.6406,248.9375 L329.2656,248.9375 L329.2656,251.5313 Q329.2656,252.1406 329.0313,252.4063 Q328.8125,252.6563 328.4219,252.6563 Q328.0469,252.6563 327.8125,252.4063 Q327.5781,252.1406 327.5781,251.5313 L327.5781,250.6406 L323.6094,250.6406 L323.6094,253.0938 L325.0938,253.0938 Q325.0938,252.4375 325.2188,252.25 Q325.4844,251.8438 325.9531,251.8438 Q326.3281,251.8438 326.5625,252.1094 Q326.7969,252.3594 326.7969,252.9688 L326.7969,254.9375 Q326.7969,255.4844 326.6719,255.6719 Q326.4063,256.0625 325.9531,256.0625 Q325.4844,256.0625 325.2188,255.6563 Q325.0938,255.4688 325.0938,254.7969 L323.6094,254.7969 Z " fill="#000000"/><text fill="#000000" font-family="sans-serif" font-size="14" lengthAdjust="spacing" textLength="48" x="345.25" y="259.7285">reserva</text><line style="stroke:#181818;stroke-width:0.5;" x1="274.5" x2="431.5" y1="270" y2="270"/><ellipse cx="284.5" cy="284.3047" fill="none" rx="3" ry="3" style="stroke:#038048;stroke-width:1.0;"/><text fill="#000000" font-family="sans-serif" font-size="14" lengthAdjust="spacing" textLength="130" x="293.5" y="288.5332">id_reserva INT «PK»</text><text fill="#000000" font-family="sans-serif" font-size="14" lengthAdjust="spacing" textLength="109" x="293.5" y="306.1426">id_habitacion INT</text><text fill="#000000" font-family="sans-serif" font-size="14" lengthAdjust="spacing" textLength="106" x="293.5" y="323.752">id_empleado INT</text><text fill="#000000" font-family="sans-serif" font-size="14" lengthAdjust="spacing" textLength="93" x="293.5" y="341.3613">dni_cliente INT</text><text fill="#000000" font-family="sans-serif" font-size="14" lengthAdjust="spacing" textLength="116" x="293.5" y="358.9707">fecha_inicio DATE</text><text fill="#000000" font-family="sans-serif" font-size="14" lengthAdjust="spacing" textLength="99" x="293.5" y="376.5801">fecha_fin DATE</text><line style="stroke:#181818;stroke-width:0.5;" x1="274.5" x2="431.5" y1="383.6563" y2="383.6563"/><text fill="#000000" font-family="sans-serif" font-size="14" lengthAdjust="spacing" textLength="147" x="279.5" y="402.1895">estado VARCHAR(255)</text></g><!--MD5=[471c9f6f7b431c2f099accc1128715cc]
class boleta--><g id="elem_boleta"><rect codeLine="70" fill="#F1F1F1" height="171.2656" id="boleta" rx="2.5" ry="2.5" style="stroke:#181818;stroke-width:0.5;" width="192" x="260" y="7"/><ellipse cx="332.25" cy="23" fill="#ADD1B2" rx="11" ry="11" style="stroke:#181818;stroke-width:1.0;"/><path d="M331.1094,23.7969 L331.1094,26.2969 L335.4375,26.2969 L335.4375,25.375 Q335.4375,24.7656 335.6719,24.5 Q335.9219,24.2344 336.2969,24.2344 Q336.6719,24.2344 336.9063,24.5 Q337.1406,24.7656 337.1406,25.375 L337.1406,28 L329.1406,28 Q328.5156,28 328.25,27.7656 Q328,27.5313 328,27.1406 Q328,26.7656 328.2656,26.5313 Q328.5313,26.2969 329.1406,26.2969 L329.4063,26.2969 L329.4063,19.6406 L329.1406,19.6406 Q328.5156,19.6406 328.25,19.4063 Q328,19.1719 328,18.7813 Q328,18.4063 328.25,18.1719 Q328.5156,17.9375 329.1406,17.9375 L336.7656,17.9375 L336.7656,20.5313 Q336.7656,21.1406 336.5313,21.4063 Q336.3125,21.6563 335.9219,21.6563 Q335.5469,21.6563 335.3125,21.4063 Q335.0781,21.1406 335.0781,20.5313 L335.0781,19.6406 L331.1094,19.6406 L331.1094,22.0938 L332.5938,22.0938 Q332.5938,21.4375 332.7188,21.25 Q332.9844,20.8438 333.4531,20.8438 Q333.8281,20.8438 334.0625,21.1094 Q334.2969,21.3594 334.2969,21.9688 L334.2969,23.9375 Q334.2969,24.4844 334.1719,24.6719 Q333.9063,25.0625 333.4531,25.0625 Q332.9844,25.0625 332.7188,24.6563 Q332.5938,24.4688 332.5938,23.7969 L331.1094,23.7969 Z " fill="#000000"/><text fill="#000000" font-family="sans-serif" font-size="14" lengthAdjust="spacing" textLength="39" x="352.75" y="28.7285">boleta</text><line style="stroke:#181818;stroke-width:0.5;" x1="261" x2="451" y1="39" y2="39"/><ellipse cx="271" cy="53.3047" fill="none" rx="3" ry="3" style="stroke:#038048;stroke-width:1.0;"/><text fill="#000000" font-family="sans-serif" font-size="14" lengthAdjust="spacing" textLength="121" x="280" y="57.5332">id_boleta INT «PK»</text><text fill="#000000" font-family="sans-serif" font-size="14" lengthAdjust="spacing" textLength="92" x="280" y="75.1426">id_reserva INT</text><text fill="#000000" font-family="sans-serif" font-size="14" lengthAdjust="spacing" textLength="132" x="280" y="92.752">fecha_emision DATE</text><text fill="#000000" font-family="sans-serif" font-size="14" lengthAdjust="spacing" textLength="113" x="280" y="110.3613">cantidad_dias INT</text><line style="stroke:#181818;stroke-width:0.5;" x1="261" x2="451" y1="117.4375" y2="117.4375"/><text fill="#000000" font-family="sans-serif" font-size="14" lengthAdjust="spacing" textLength="162" x="266" y="135.9707">concepto VARCHAR(255)</text><text fill="#000000" font-family="sans-serif" font-size="14" lengthAdjust="spacing" textLength="145" x="266" y="153.5801">cupon DECIMAL(10, 2)</text><text fill="#000000" font-family="sans-serif" font-size="14" lengthAdjust="spacing" textLength="180" x="266" y="171.1895">monto_total DECIMAL(10, 2)</text></g><!--MD5=[8adab9be74b0a34cb6ab96f6ff72b0c0]
link empresa_hotelera to sucursal--><g id="link_empresa_hotelera_sucursal"><path codeLine="80" d="M117.64,168.7 C118.07,188.22 118.53,209.48 118.98,229.79 " fill="none" id="empresa_hotelera-sucursal" style="stroke:#181818;stroke-width:1.0;"/><line style="stroke:#181818;stroke-width:1.0;" x1="118.9643" x2="125.1484" y1="229.8222" y2="237.6808"/><line style="stroke:#181818;stroke-width:1.0;" x1="118.9643" x2="113.1516" y1="229.8222" y2="237.9592"/><line style="stroke:#181818;stroke-width:1.0;" x1="118.9643" x2="119.15" y1="229.8222" y2="237.82"/><ellipse cx="118.8251" cy="223.8238" fill="none" rx="4" ry="4" style="stroke:#181818;stroke-width:1.0;"/><line style="stroke:#181818;stroke-width:1.0;" x1="113.5566" x2="121.5548" y1="164.7448" y2="164.5734"/><line style="stroke:#181818;stroke-width:1.0;" x1="113.6209" x2="121.619" y1="167.7441" y2="167.5727"/><line style="stroke:#181818;stroke-width:1.0;" x1="117.6414" x2="117.47" y1="168.6582" y2="160.66"/></g><!--MD5=[52db45db742bcddfac315bab34eccb3b]
link sucursal to habitaciones--><g id="link_sucursal_habitaciones"><path codeLine="81" d="M204.36,415.09 C226.99,439.68 251.2,465.99 272.8,489.48 " fill="none" id="sucursal-habitaciones" style="stroke:#181818;stroke-width:1.0;"/><line style="stroke:#181818;stroke-width:1.0;" x1="272.8239" x2="282.6558" y1="489.4923" y2="491.3179"/><line style="stroke:#181818;stroke-width:1.0;" x1="272.8239" x2="273.8242" y1="489.4923" y2="499.4421"/><line style="stroke:#181818;stroke-width:1.0;" x1="272.8239" x2="278.24" y1="489.4923" y2="495.38"/><ellipse cx="268.7618" cy="485.0765" fill="none" rx="4" ry="4" style="stroke:#181818;stroke-width:1.0;"/><line style="stroke:#181818;stroke-width:1.0;" x1="198.5874" x2="204.4816" y1="414.7316" y2="409.3226"/><line style="stroke:#181818;stroke-width:1.0;" x1="200.6158" x2="206.51" y1="416.942" y2="411.533"/><line style="stroke:#181818;stroke-width:1.0;" x1="204.239" x2="198.83" y1="414.9743" y2="409.08"/></g><!--MD5=[d639c14368663bce99d5eacc07bd32a9]
link sucursal to empleados--><g id="link_sucursal_empleados"><path codeLine="82" d="M121,417.33 C121,431.48 121,446.15 121,460.49 " fill="none" id="sucursal-empleados" style="stroke:#181818;stroke-width:1.0;"/><line style="stroke:#181818;stroke-width:1.0;" x1="125" x2="117" y1="464.89" y2="464.89"/><line style="stroke:#181818;stroke-width:1.0;" x1="125" x2="117" y1="461.89" y2="461.89"/><line style="stroke:#181818;stroke-width:1.0;" x1="121" x2="121" y1="460.89" y2="468.89"/><line style="stroke:#181818;stroke-width:1.0;" x1="121" x2="115" y1="417.08" y2="409.08"/><line style="stroke:#181818;stroke-width:1.0;" x1="121" x2="127" y1="417.08" y2="409.08"/><line style="stroke:#181818;stroke-width:1.0;" x1="121" x2="121" y1="417.08" y2="409.08"/><ellipse cx="121" cy="423.08" fill="none" rx="4" ry="4" style="stroke:#181818;stroke-width:1.0;"/></g><!--MD5=[c575885efce5095cdc606c9ca53bdd74]
link habitaciones to tipo_habitacion--><g id="link_habitaciones_tipo_habitacion"><path codeLine="83" d="M341.36,639.69 C341.77,662.28 342.22,687.06 342.63,709.66 " fill="none" id="habitaciones-tipo_habitacion" style="stroke:#181818;stroke-width:1.0;"/><line style="stroke:#181818;stroke-width:1.0;" x1="346.7007" x2="338.7022" y1="713.8022" y2="713.9593"/><line style="stroke:#181818;stroke-width:1.0;" x1="346.6418" x2="338.6433" y1="710.8028" y2="710.9599"/><line style="stroke:#181818;stroke-width:1.0;" x1="342.6229" x2="342.78" y1="709.8815" y2="717.88"/><line style="stroke:#181818;stroke-width:1.0;" x1="341.3628" x2="335.221" y1="639.5587" y2="631.6671"/><line style="stroke:#181818;stroke-width:1.0;" x1="341.3628" x2="347.219" y1="639.5587" y2="631.4529"/><line style="stroke:#181818;stroke-width:1.0;" x1="341.3628" x2="341.22" y1="639.5587" y2="631.56"/><ellipse cx="341.47" cy="645.5578" fill="none" rx="4" ry="4" style="stroke:#181818;stroke-width:1.0;"/></g><!--MD5=[8082457d7c87e8691429e7bcbb35467e]
link empleados to cargos--><g id="link_empleados_cargos"><path codeLine="84" d="M117.31,666.13 C116.55,687.05 115.78,708.39 115.1,727.1 " fill="none" id="empleados-cargos" style="stroke:#181818;stroke-width:1.0;"/><line style="stroke:#181818;stroke-width:1.0;" x1="118.9505" x2="110.9556" y1="731.3756" y2="731.0895"/><line style="stroke:#181818;stroke-width:1.0;" x1="119.0577" x2="111.0628" y1="728.3775" y2="728.0915"/><line style="stroke:#181818;stroke-width:1.0;" x1="115.096" x2="114.81" y1="727.2351" y2="735.23"/><line style="stroke:#181818;stroke-width:1.0;" x1="117.3245" x2="111.6138" y1="666.0049" y2="657.7959"/><line style="stroke:#181818;stroke-width:1.0;" x1="117.3245" x2="123.6062" y1="666.0049" y2="658.2241"/><line style="stroke:#181818;stroke-width:1.0;" x1="117.3245" x2="117.61" y1="666.0049" y2="658.01"/><ellipse cx="117.1103" cy="672.0011" fill="none" rx="4" ry="4" style="stroke:#181818;stroke-width:1.0;"/></g><!--MD5=[91358dc8ace83d00c5842f05d3c11f17]
link reserva to habitaciones--><g id="link_reserva_habitaciones"><path codeLine="85" d="M347.94,417.12 C346.67,440.36 345.32,465.01 344.11,487.29 " fill="none" id="reserva-habitaciones" style="stroke:#181818;stroke-width:1.0;"/><line style="stroke:#181818;stroke-width:1.0;" x1="347.8853" x2="339.8976" y1="491.6076" y2="491.1647"/><line style="stroke:#181818;stroke-width:1.0;" x1="348.0515" x2="340.0637" y1="488.6122" y2="488.1693"/><line style="stroke:#181818;stroke-width:1.0;" x1="344.113" x2="343.67" y1="487.3923" y2="495.38"/><line style="stroke:#181818;stroke-width:1.0;" x1="347.9513" x2="342.3886" y1="417.0685" y2="408.7585"/><line style="stroke:#181818;stroke-width:1.0;" x1="347.9513" x2="354.3714" y1="417.0685" y2="409.4015"/><line style="stroke:#181818;stroke-width:1.0;" x1="347.9513" x2="348.38" y1="417.0685" y2="409.08"/><ellipse cx="347.6297" cy="423.0599" fill="none" rx="4" ry="4" style="stroke:#181818;stroke-width:1.0;"/></g><!--MD5=[0b0e9edca04e31f1eeef659061767915]
link reserva to empleados--><g id="link_reserva_empleados"><path codeLine="86" d="M267.44,412.27 C251.47,428.66 234.66,445.9 218.36,462.62 " fill="none" id="reserva-empleados" style="stroke:#181818;stroke-width:1.0;"/><line style="stroke:#181818;stroke-width:1.0;" x1="218.0364" x2="212.3086" y1="468.6886" y2="463.1036"/><line style="stroke:#181818;stroke-width:1.0;" x1="220.1308" x2="214.4029" y1="466.5406" y2="460.9557"/><line style="stroke:#181818;stroke-width:1.0;" x1="217.965" x2="212.38" y1="463.0322" y2="468.76"/><line style="stroke:#181818;stroke-width:1.0;" x1="267.895" x2="269.1841" y1="411.7978" y2="401.8813"/><line style="stroke:#181818;stroke-width:1.0;" x1="267.895" x2="277.7759" y1="411.7978" y2="410.2587"/><line style="stroke:#181818;stroke-width:1.0;" x1="267.895" x2="273.48" y1="411.7978" y2="406.07"/><ellipse cx="263.7063" cy="416.0937" fill="none" rx="4" ry="4" style="stroke:#181818;stroke-width:1.0;"/></g><!--MD5=[97f3b6bc39139598365c1125ff502881]
link reserva to clientes--><g id="link_reserva_clientes"><path codeLine="87" d="M425.95,415.41 C448.03,442.91 471.8,472.54 492.19,497.94 " fill="none" id="reserva-clientes" style="stroke:#181818;stroke-width:1.0;"/><line style="stroke:#181818;stroke-width:1.0;" x1="497.9216" x2="491.6774" y1="498.6874" y2="503.6884"/><line style="stroke:#181818;stroke-width:1.0;" x1="496.0462" x2="489.802" y1="496.3458" y2="501.3469"/><line style="stroke:#181818;stroke-width:1.0;" x1="492.299" x2="497.3" y1="498.0658" y2="504.31"/><line style="stroke:#181818;stroke-width:1.0;" x1="425.881" x2="416.1969" y1="415.3242" y2="412.8308"/><line style="stroke:#181818;stroke-width:1.0;" x1="425.881" x2="425.5631" y1="415.3242" y2="405.3292"/><line style="stroke:#181818;stroke-width:1.0;" x1="425.881" x2="420.88" y1="415.3242" y2="409.08"/><ellipse cx="429.6318" cy="420.0073" fill="none" rx="4" ry="4" style="stroke:#181818;stroke-width:1.0;"/></g><!--MD5=[1f3aec77244056ab30bcad0336ea36e8]
link boleta to reserva--><g id="link_boleta_reserva"><path codeLine="88" d="M354.78,186.41 C354.6,200.63 354.4,215.31 354.22,229.53 " fill="none" id="boleta-reserva" style="stroke:#181818;stroke-width:1.0;"/><line style="stroke:#181818;stroke-width:1.0;" x1="358.1597" x2="350.1603" y1="233.9003" y2="233.8003"/><line style="stroke:#181818;stroke-width:1.0;" x1="358.1972" x2="350.1978" y1="230.9005" y2="230.8006"/><line style="stroke:#181818;stroke-width:1.0;" x1="354.21" x2="354.11" y1="229.8506" y2="237.85"/><line style="stroke:#181818;stroke-width:1.0;" x1="354.7757" x2="348.8906" y1="186.1192" y2="178.0343"/><line style="stroke:#181818;stroke-width:1.0;" x1="354.7757" x2="360.8894" y1="186.1192" y2="178.2057"/><line style="stroke:#181818;stroke-width:1.0;" x1="354.7757" x2="354.89" y1="186.1192" y2="178.12"/><ellipse cx="354.69" cy="192.1186" fill="none" rx="4" ry="4" style="stroke:#181818;stroke-width:1.0;"/></g><!--MD5=[7553d816a1e7f698ad73d2102e10ef22]
@startuml

entity "empresa_hotelera" {
  +id_empresa_hotel INT <<PK>>
  razon_social VARCHAR(255)
  ruc VARCHAR(255)
  direccion VARCHAR(255)
  telefono_central VARCHAR(255)
}

entity "sucursal" {
  +id_empresa_hotel INT
  +id_sucursal INT <<PK>>
  nombre VARCHAR(255)
  ciudad VARCHAR(255)
  distrito VARCHAR(255)
  direccion VARCHAR(255)
  telefono_sucursal VARCHAR(255)
}

entity "tipo_habitacion" {
  +id_tipo_habitacion INT <<PK>>
  tipo VARCHAR(255)
  capacidad INT
  descripcion VARCHAR(255)
  precio DECIMAL(10, 2)
}

entity "habitaciones" {
  +id_sucursal INT
  +id_habitacion INT <<PK>>
  piso INT
  puerta INT
  id_tipo_habitacion INT
}

entity "cargos" {
  +id_cargo INT <<PK>>
  nombre VARCHAR(255)
  descripcion VARCHAR(255)
}

entity "empleados" {
  +id_empleado INT <<PK>>
  id_sucursal INT
  id_cargo INT
  dni_empleado INT
  nombre VARCHAR(255)
  apellido VARCHAR(255)
  celular VARCHAR(255)
  contrasena VARCHAR(255)
}

entity "clientes" {
  +dni_cliente INT <<PK>>
  nombre VARCHAR(255)
  apellido VARCHAR(255)
  celular VARCHAR(255)
}

entity "reserva" {
  +id_reserva INT <<PK>>
  id_habitacion INT
  id_empleado INT
  dni_cliente INT
  fecha_inicio DATE
  fecha_fin DATE
  estado VARCHAR(255)
}

entity "boleta" {
  +id_boleta INT <<PK>>
  id_reserva INT
  fecha_emision DATE
  concepto VARCHAR(255)
  cantidad_dias INT
  cupon DECIMAL(10, 2)
  monto_total DECIMAL(10, 2)
}

"empresa_hotelera" ||- -o{ "sucursal"
"sucursal" ||- -o{ "habitaciones"
"sucursal" }o- -|| "empleados"
"habitaciones" }o- -|| "tipo_habitacion"
"empleados" }o- -|| "cargos"
"reserva" }o- -|| "habitaciones"
"reserva" }o- -|| "empleados"
"reserva" }o- -|| "clientes"
"boleta" }o- -|| "reserva"

@enduml

PlantUML version 1.2022.7(Mon Aug 22 12:01:30 PET 2022)
(GPL source distribution)
Java Runtime: OpenJDK Runtime Environment
JVM: OpenJDK 64-Bit Server VM
Default Encoding: UTF-8
Language: es
Country: ES
--></g></svg>